<svg width="98" height="23" viewBox="0 0 98 23" fill="none" xmlns="http://www.w3.org/2000/svg">
<path d="M0.04725 22V1.392H14.0633V4.112H3.53525V10.352H12.8793V13.04H3.53525V22H0.04725ZM21.1755 22.32C19.3622 22.32 17.9648 21.8187 16.9835 20.816C16.0235 19.8133 15.5435 18.3413 15.5435 16.4V6.832H19.0315V16.4C19.0315 17.5307 19.3088 18.3627 19.8635 18.896C20.4182 19.4293 21.2715 19.696 22.4235 19.696C23.2768 19.696 24.0662 19.536 24.7915 19.216C25.5168 18.896 26.1462 18.4693 26.6795 17.936V6.832H30.1355V22H26.9675L26.8075 20.432C26.1248 20.9653 25.3142 21.4133 24.3755 21.776C23.4368 22.1387 22.3702 22.32 21.1755 22.32ZM39.9955 22.32C38.3742 22.32 37.1582 21.8933 36.3475 21.04C35.5582 20.1653 35.1635 18.9813 35.1635 17.488V9.552H32.9235V6.832H35.1635V3.344L38.6195 2.288V6.832H42.6515L42.4275 9.552H38.6195V17.296C38.6195 18.1707 38.8222 18.7893 39.2275 19.152C39.6328 19.4933 40.2942 19.664 41.2115 19.664C41.7875 19.664 42.3955 19.5573 43.0355 19.344V21.808C42.2035 22.1493 41.1902 22.32 39.9955 22.32ZM51.1755 22.32C49.3622 22.32 47.9648 21.8187 46.9835 20.816C46.0235 19.8133 45.5435 18.3413 45.5435 16.4V6.832H49.0315V16.4C49.0315 17.5307 49.3088 18.3627 49.8635 18.896C50.4182 19.4293 51.2715 19.696 52.4235 19.696C53.2768 19.696 54.0662 19.536 54.7915 19.216C55.5168 18.896 56.1462 18.4693 56.6795 17.936V6.832H60.1355V22H56.9675L56.8075 20.432C56.1248 20.9653 55.3142 21.4133 54.3755 21.776C53.4368 22.1387 52.3702 22.32 51.1755 22.32ZM64.2035 22V6.832H67.4035L67.5955 8.592C68.3208 8.12267 69.1848 7.696 70.1875 7.312C71.1902 6.928 72.1822 6.66133 73.1635 6.512V9.168C72.5662 9.27467 71.9155 9.43467 71.2115 9.648C70.5288 9.84 69.8782 10.064 69.2595 10.32C68.6408 10.5547 68.1182 10.8 67.6915 11.056V22H64.2035ZM76.9835 3.664V0.783998H80.7915V3.664H76.9835ZM77.2715 22V9.488H74.9675L75.2875 6.832H80.7595V22H77.2715ZM92.2845 22.32C89.6178 22.32 87.6018 21.648 86.2365 20.304C84.8712 18.9387 84.1885 16.976 84.1885 14.416C84.1885 11.7493 84.9352 9.76533 86.4285 8.464C87.9432 7.16267 89.9592 6.512 92.4765 6.512C93.5218 6.512 94.3965 6.58667 95.1005 6.736C95.8258 6.88533 96.5192 7.12 97.1805 7.44V10.032C96.0712 9.47733 94.7272 9.2 93.1485 9.2C91.3992 9.2 90.0552 9.59467 89.1165 10.384C88.1778 11.152 87.7085 12.496 87.7085 14.416C87.7085 16.2293 88.1245 17.5627 88.9565 18.416C89.7885 19.248 91.1645 19.664 93.0845 19.664C94.5992 19.664 95.9752 19.376 97.2125 18.8V21.456C96.5085 21.7333 95.7512 21.9467 94.9405 22.096C94.1512 22.2453 93.2658 22.32 92.2845 22.32Z" fill="white"/>
</svg>
